<?xml version="1.0" encoding="UTF-8"?>
<svg width="20px" height="20px" viewBox="0 0 20 20" version="1.1" xmlns="http://www.w3.org/2000/svg" xmlns:xlink="http://www.w3.org/1999/xlink">
    <!-- Generator: Sketch 47.1 (45422) - http://www.bohemiancoding.com/sketch -->
    <title>Android/SVGicon/categories</title>
    <desc>Created with Sketch.</desc>
    <defs></defs>
    <g id="Symbols" stroke="none" stroke-width="1" fill="none" fill-rule="evenodd">
        <g id="icon/categories" fill="#8F939C">
            <g id="Group-2" transform="translate(2.000000, 3.000000)">
                <rect id="Rectangle-2" x="3.86332418" y="0.9140625" width="11.1263736" height="1" rx="0.5"></rect>
                <rect id="Rectangle-2-Copy" x="5.86332418" y="5.76936849" width="9.12637363" height="1" rx="0.5"></rect>
                <path d="M2.4998,3.5 C2.33620102,3.5 2.19080192,3.61002368 2.14045224,3.7725812 L1.72425482,5.10841167 L0.377963196,5.10841167 C0.214364214,5.10841167 0.0689651177,5.21843536 0.0186154308,5.38104504 C-0.0321842532,5.54334172 0.023415401,5.72128898 0.155764578,5.82181797 L1.2451078,6.64780422 L0.828910392,7.98384337 C0.778110708,8.14614004 0.833710362,8.32408731 0.966059539,8.4246163 C1.03245913,8.47490688 1.11055864,8.5 1.18825816,8.5 C1.26635767,8.5 1.34450719,8.47490688 1.41045678,8.4246163 L2.4998,7.59868222 L3.58914323,8.4246163 C3.65509282,8.47490688 3.73324233,8.5 3.81134185,8.5 C3.88904136,8.5 3.96714088,8.47490688 4.03354046,8.4246163 C4.16588964,8.32408731 4.22143929,8.14614004 4.17068961,7.98358253 L3.7544922,6.64780422 L4.84423542,5.82207882 C4.9765846,5.7217585 5.03218425,5.54381123 4.98138457,5.38125372 C4.93058489,5.2186962 4.78563579,5.10862035 4.6219868,5.10862035 L3.27534518,5.10862035 L2.85914777,3.7725812 C2.80834808,3.61002368 2.66339898,3.50020867 2.4998,3.5 L2.4998,3.5 L2.4998,3.5 Z" id="Shape"></path>
                <rect id="Rectangle-2-Copy-2" x="3.86332418" y="10.6246745" width="11.1263736" height="1" rx="0.5"></rect>
            </g>
        </g>
    </g>
</svg>